<?xml version="1.0" encoding="utf-8"?>
<svg viewBox="91.377 92.536 294.047 293.467" width="294.047" height="293.467" xmlns="http://www.w3.org/2000/svg">
  <path d="M 210.271 92.536 L 210.271 122.441 C 197.998 125.376 186.259 130.216 175.488 136.786 L 154.326 115.666 L 114.553 155.363 L 135.751 176.519 C 129.161 187.255 124.299 198.959 121.344 211.201 L 91.377 211.201 L 91.377 267.339 L 121.341 267.339 C 124.281 279.592 129.132 291.308 135.715 302.058 L 114.553 323.178 L 154.326 362.875 L 175.526 341.716 C 186.285 348.295 198.011 353.146 210.276 356.094 L 210.276 386.003 L 266.526 386.003 L 266.526 356.097 C 278.803 353.164 290.541 348.322 301.31 341.752 L 322.475 362.875 L 362.248 323.178 L 341.05 302.022 C 347.641 291.284 352.503 279.581 355.456 267.338 L 385.424 267.338 L 385.424 211.199 L 355.459 211.199 C 352.52 198.947 347.67 187.232 341.086 176.483 L 362.27 155.38 L 322.486 115.683 L 301.288 136.839 C 290.529 130.26 278.803 125.408 266.535 122.461 L 266.535 92.553 L 210.286 92.553 L 210.271 92.536 Z M 238.396 172.303 C 275.453 172.306 305.491 202.288 305.49 239.271 C 305.489 276.252 275.451 306.229 238.396 306.232 C 201.342 306.232 171.301 276.253 171.298 239.271 C 171.298 202.286 201.339 172.303 238.396 172.303 Z" fill-rule="evenodd" style=""/>
</svg>